ffmpeg version 4.2.1 Copyright (c) 2000-2019 the FFmpeg developers
  built with gcc 9.1.1 (GCC) 20190807
  configuration: --enable-gpl --enable-version3 --enable-sdl2 --enable-fontconfig --enable-gnutls --enable-iconv --enable-libass --enable-libdav1d --enable-libbluray --enable-libfreetype --enable-libmp3lame --enable-libopencore-amrnb --enable-libopencore-amrwb --enable-libopenjpeg --enable-libopus --enable-libshine --enable-libsnappy --enable-libsoxr --enable-libtheora --enable-libtwolame --enable-libvpx --enable-libwavpack --enable-libwebp --enable-libx264 --enable-libx265 --enable-libxml2 --enable-libzimg --enable-lzma --enable-zlib --enable-gmp --enable-libvidstab --enable-libvorbis --enable-libvo-amrwbenc --enable-libmysofa --enable-libspeex --enable-libxvid --enable-libaom --enable-libmfx --enable-amf --enable-ffnvcodec --enable-cuvid --enable-d3d11va --enable-nvenc --enable-nvdec --enable-dxva2 --enable-avisynth --enable-libopenmpt
  libavutil      56. 31.100 / 56. 31.100
  libavcodec     58. 54.100 / 58. 54.100
  libavformat    58. 29.100 / 58. 29.100
  libavdevice    58.  8.100 / 58.  8.100
  libavfilter     7. 57.100 /  7. 57.100
  libswscale      5.  5.100 /  5.  5.100
  libswresample   3.  5.100 /  3.  5.100
  libpostproc    55.  5.100 / 55.  5.100
Input #0, mp3, from 'C:\Users\Evgenij\Python\Lab_2\Task7\01. Carla Morrison - Disfruto.mp3':
  Metadata:
    encoder         : Lavf58.20.100
  Duration: 00:03:50.03, start: 0.011995, bitrate: 320 kb/s
    Stream #0:0: Audio: mp3, 44100 Hz, stereo, fltp, 320 kb/s
    Metadata:
      encoder         : Lavf
Stream mapping:
  Stream #0:0 -> #0:0 (mp3 (mp3float) -> mp3 (libmp3lame))
Press [q] to stop, [?] for help
Output #0, mp3, to 'mixes\mix0.mp3':
  Metadata:
    TSSE            : Lavf58.29.100
    Stream #0:0: Audio: mp3 (libmp3lame), 44100 Hz, stereo, fltp
    Metadata:
      encoder         : Lavc58.54.100 libmp3lame
ffmpeg version 4.2.1 Copyright (c) 2000-2019 the FFmpeg developers
  built with gcc 9.1.1 (GCC) 20190807
  configuration: --enable-gpl --enable-version3 --enable-sdl2 --enable-fontconfig --enable-gnutls --enable-iconv --enable-libass --enable-libdav1d --enable-libbluray --enable-libfreetype --enable-libmp3lame --enable-libopencore-amrnb --enable-libopencore-amrwb --enable-libopenjpeg --enable-libopus --enable-libshine --enable-libsnappy --enable-libsoxr --enable-libtheora --enable-libtwolame --enable-libvpx --enable-libwavpack --enable-libwebp --enable-libx264 --enable-libx265 --enable-libxml2 --enable-libzimg --enable-lzma --enable-zlib --enable-gmp --enable-libvidstab --enable-libvorbis --enable-libvo-amrwbenc --enable-libmysofa --enable-libspeex --enable-libxvid --enable-libaom --enable-libmfx --enable-amf --enable-ffnvcodec --enable-cuvid --enable-d3d11va --enable-nvenc --enable-nvdec --enable-dxva2 --enable-avisynth --enable-libopenmpt
  libavutil      56. 31.100 / 56. 31.100
  libavcodec     58. 54.100 / 58. 54.100
  libavformat    58. 29.100 / 58. 29.100
  libavdevice    58.  8.100 / 58.  8.100
  libavfilter     7. 57.100 /  7. 57.100
  libswscale      5.  5.100 /  5.  5.100
  libswresample   3.  5.100 /  3.  5.100
  libpostproc    55.  5.100 / 55.  5.100
Input #0, mp3, from 'C:\Users\Evgenij\Python\Lab_2\Task7\02. Emma Peters - Clandestina.mp3':
  Metadata:
    encoder         : Lavf58.20.100
  Duration: 00:02:28.87, start: 0.011995, bitrate: 320 kb/s
    Stream #0:0: Audio: mp3, 44100 Hz, stereo, fltp, 320 kb/s
    Metadata:
      encoder         : Lavf
Stream mapping:
  Stream #0:0 -> #0:0 (mp3 (mp3float) -> mp3 (libmp3lame))
Press [q] to stop, [?] for help
Output #0, mp3, to 'mixes\mix1.mp3':
  Metadata:
    TSSE            : Lavf58.29.100
    Stream #0:0: Audio: mp3 (libmp3lame), 44100 Hz, stereo, fltp
    Metadata:
      encoder         : Lavc58.54.100 libmp3lame
ffmpeg version 4.2.1 Copyright (c) 2000-2019 the FFmpeg developers
  built with gcc 9.1.1 (GCC) 20190807
  configuration: --enable-gpl --enable-version3 --enable-sdl2 --enable-fontconfig --enable-gnutls --enable-iconv --enable-libass --enable-libdav1d --enable-libbluray --enable-libfreetype --enable-libmp3lame --enable-libopencore-amrnb --enable-libopencore-amrwb --enable-libopenjpeg --enable-libopus --enable-libshine --enable-libsnappy --enable-libsoxr --enable-libtheora --enable-libtwolame --enable-libvpx --enable-libwavpack --enable-libwebp --enable-libx264 --enable-libx265 --enable-libxml2 --enable-libzimg --enable-lzma --enable-zlib --enable-gmp --enable-libvidstab --enable-libvorbis --enable-libvo-amrwbenc --enable-libmysofa --enable-libspeex --enable-libxvid --enable-libaom --enable-libmfx --enable-amf --enable-ffnvcodec --enable-cuvid --enable-d3d11va --enable-nvenc --enable-nvdec --enable-dxva2 --enable-avisynth --enable-libopenmpt
  libavutil      56. 31.100 / 56. 31.100
  libavcodec     58. 54.100 / 58. 54.100
  libavformat    58. 29.100 / 58. 29.100
  libavdevice    58.  8.100 / 58.  8.100
  libavfilter     7. 57.100 /  7. 57.100
  libswscale      5.  5.100 /  5.  5.100
  libswresample   3.  5.100 /  3.  5.100
  libpostproc    55.  5.100 / 55.  5.100
Input #0, mp3, from 'C:\Users\Evgenij\Python\Lab_2\Task7\03. Kambulat - Томас Шелби.mp3':
  Metadata:
    encoder         : Lavf58.20.100
  Duration: 00:02:38.30, start: 0.025057, bitrate: 320 kb/s
    Stream #0:0: Audio: mp3, 44100 Hz, stereo, fltp, 320 kb/s
    Metadata:
      encoder         : Lavf
    Side data:
      replaygain: track gain - -6.300000, track peak - unknown, album gain - unknown, album peak - unknown, 
Stream mapping:
  Stream #0:0 -> #0:0 (mp3 (mp3float) -> mp3 (libmp3lame))
Press [q] to stop, [?] for help
Output #0, mp3, to 'mixes\mix2.mp3':
  Metadata:
    TSSE            : Lavf58.29.100
    Stream #0:0: Audio: mp3 (libmp3lame), 44100 Hz, stereo, fltp
    Metadata:
      encoder         : Lavc58.54.100 libmp3lame
    Side data:
      replaygain: track gain - -6.300000, track peak - unknown, album gain - unknown, album peak - unknown, 
ffmpeg version 4.2.1 Copyright (c) 2000-2019 the FFmpeg developers
  built with gcc 9.1.1 (GCC) 20190807
  configuration: --enable-gpl --enable-version3 --enable-sdl2 --enable-fontconfig --enable-gnutls --enable-iconv --enable-libass --enable-libdav1d --enable-libbluray --enable-libfreetype --enable-libmp3lame --enable-libopencore-amrnb --enable-libopencore-amrwb --enable-libopenjpeg --enable-libopus --enable-libshine --enable-libsnappy --enable-libsoxr --enable-libtheora --enable-libtwolame --enable-libvpx --enable-libwavpack --enable-libwebp --enable-libx264 --enable-libx265 --enable-libxml2 --enable-libzimg --enable-lzma --enable-zlib --enable-gmp --enable-libvidstab --enable-libvorbis --enable-libvo-amrwbenc --enable-libmysofa --enable-libspeex --enable-libxvid --enable-libaom --enable-libmfx --enable-amf --enable-ffnvcodec --enable-cuvid --enable-d3d11va --enable-nvenc --enable-nvdec --enable-dxva2 --enable-avisynth --enable-libopenmpt
  libavutil      56. 31.100 / 56. 31.100
  libavcodec     58. 54.100 / 58. 54.100
  libavformat    58. 29.100 / 58. 29.100
  libavdevice    58.  8.100 / 58.  8.100
  libavfilter     7. 57.100 /  7. 57.100
  libswscale      5.  5.100 /  5.  5.100
  libswresample   3.  5.100 /  3.  5.100
  libpostproc    55.  5.100 / 55.  5.100
Input #0, mp3, from 'C:\Users\Evgenij\Python\Lab_2\Task7\04. Tanir & Tyomcha - Разбуди меня.mp3':
  Metadata:
    encoder         : Lavf58.20.100
  Duration: 00:02:57.92, start: 0.025057, bitrate: 320 kb/s
    Stream #0:0: Audio: mp3, 44100 Hz, stereo, fltp, 320 kb/s
    Metadata:
      encoder         : Lavf
    Side data:
      replaygain: track gain - -9.900000, track peak - unknown, album gain - unknown, album peak - unknown, 
Stream mapping:
  Stream #0:0 -> #0:0 (mp3 (mp3float) -> mp3 (libmp3lame))
Press [q] to stop, [?] for help
Output #0, mp3, to 'mixes\mix3.mp3':
  Metadata:
    TSSE            : Lavf58.29.100
    Stream #0:0: Audio: mp3 (libmp3lame), 44100 Hz, stereo, fltp
    Metadata:
      encoder         : Lavc58.54.100 libmp3lame
    Side data:
      replaygain: track gain - -9.900000, track peak - unknown, album gain - unknown, album peak - unknown, 
size=     157kB time=00:00:10.00 bitrate= 128.5kbits/s speed=33.2x    
video:0kB audio:157kB subtitle:0kB other streams:0kB global headers:0kB muxing overhead: 0.157636%
size=     157kB time=00:00:10.00 bitrate= 128.5kbits/s speed=32.6x    
video:0kB audio:157kB subtitle:0kB other streams:0kB global headers:0kB muxing overhead: 0.157636%
size=     157kB time=00:00:10.00 bitrate= 128.5kbits/s speed=32.3x    
video:0kB audio:157kB subtitle:0kB other streams:0kB global headers:0kB muxing overhead: 0.157636%
size=     157kB time=00:00:10.00 bitrate= 128.5kbits/s speed=35.2x    
video:0kB audio:157kB subtitle:0kB other streams:0kB global headers:0kB muxing overhead: 0.157636%
